HIERARCHY
ROOT Hips
{
  OFFSET 3.13124 94.3669 -3.18751
  CHANNELS  6 Xposition Yposition Zposition Zrotation Xrotation Yrotation
  JOINT LeftUpLeg
  {
    OFFSET 8.64259 1.95398 -2.38835
    CHANNELS 3 Zrotation Xrotation Yrotation
    JOINT LeftLeg
    {
      OFFSET 43.7702 0 0
      CHANNELS 3 Zrotation Xrotation Yrotation
      JOINT LeftFoot
      {
        OFFSET 40.6238 0 0
        CHANNELS 3 Zrotation Xrotation Yrotation
        JOINT LeftToeBase
        {
          OFFSET 12.7242 0 0
          CHANNELS 3 Zrotation Xrotation Yrotation
          End Site
          {
            OFFSET 0 0 0
          }
        }
      }
    }
  }
  JOINT RightUpLeg
  {
    OFFSET -8.2249 1.95398 -2.59336
    CHANNELS 3 Zrotation Xrotation Yrotation
    JOINT RightLeg
    {
      OFFSET 43.5653 0 0
      CHANNELS 3 Zrotation Xrotation Yrotation
      JOINT RightFoot
      {
        OFFSET 40.6238 0 0
        CHANNELS 3 Zrotation Xrotation Yrotation
        JOINT RightToeBase
        {
          OFFSET 12.7242 0 0
          CHANNELS 3 Zrotation Xrotation Yrotation
          End Site
          {
            OFFSET 0 0 0
          }
        }
      }
    }
  }
  JOINT Spine
  {
    OFFSET 0.165834 0.87714 6.61349
    CHANNELS 3 Zrotation Xrotation Yrotation
    JOINT Spine1
    {
      OFFSET 7.38962 1.71661e-005 0
      CHANNELS 3 Zrotation Xrotation Yrotation
      JOINT Spine2
      {
        OFFSET 11.9445 1.14441e-005 0
        CHANNELS 3 Zrotation Xrotation Yrotation
        JOINT Spine3
        {
          OFFSET 14.7254 4.19617e-005 0
          CHANNELS 3 Zrotation Xrotation Yrotation
          JOINT Spine4
          {
            OFFSET 10.9679 0 0
            CHANNELS 3 Zrotation Xrotation Yrotation
            JOINT RightShoulder
            {
              OFFSET 2.46616 -1.6653 3.69651
              CHANNELS 3 Zrotation Xrotation Yrotation
              JOINT RightArm
              {
                OFFSET 13.0012 0 0
                CHANNELS 3 Zrotation Xrotation Yrotation
                JOINT RightForeArm
                {
                  OFFSET 28.7848 1.52588e-005 0
                  CHANNELS 3 Zrotation Xrotation Yrotation
                  JOINT RightHand
                  {
                    OFFSET 26.5688 1.52588e-005 0
                    CHANNELS 3 Zrotation Xrotation Yrotation
                    End Site
                    {
                      OFFSET 0 0 0
                    }
                  }
                }
              }
            }
            JOINT LeftShoulder
            {
              OFFSET 2.38034 -1.29275 -3.75231
              CHANNELS 3 Zrotation Xrotation Yrotation
              JOINT LeftArm
              {
                OFFSET 16.3182 6.10352e-005 0
                CHANNELS 3 Zrotation Xrotation Yrotation
                JOINT LeftForeArm
                {
                  OFFSET 27.0901 0 0
                  CHANNELS 3 Zrotation Xrotation Yrotation
                  JOINT LeftHand
                  {
                    OFFSET 24.5451 1.52588e-005 0
                    CHANNELS 3 Zrotation Xrotation Yrotation
                    End Site
                    {
                      OFFSET 0 0 0
                    }
                  }
                }
              }
            }
            JOINT Neck
            {
              OFFSET 5.0226 -0.0266342 0
              CHANNELS 3 Zrotation Xrotation Yrotation
              JOINT Head
              {
                OFFSET 6.69363 2.86102e-005 0
                CHANNELS 3 Zrotation Xrotation Yrotation
                End Site
                {
                  OFFSET 0 0 0
                }
              }
            }
          }
        }
      }
    }
  }
}
MOTION
Frames:	15
Frame Time:	0.0333333
86.5953 92.813 37.1447 -118.428 -77.506 -126.331 179.502 9.39453 95.1809 -51.5924 -52.6452 -4.37571 11.5595 -26.1989 -39.5121 28.7808 4.21048e-006 4.72346e-006 171.931 26.4537 66.9064 -5.20864 4.1894 0.17688 19.0322 6.09137 9.38556 28.7808 1.33314e-005 1.73752e-005 1.82618 7.78369 -90.225 11.3082 3.89105 -0.362883 -0.357022 3.87262 -0.534133 -22.938 3.81608 0.82714 -2.92534 3.81606 0.82713 83.316 -20.1146 -126.092 25.533 13.0799 -30.157 77.0918 11.2009 -90.6112 13.2592 2.57691 17.322 -148.923 -71.1439 15.674 -2.96182 -30.5134 -56.1584 -177.343 -68.3721 179.989 -86.6333 -7.91072 4.27368 -13.7756 31.9618 55.3973 3.19385 30.5112 -7.22932 
85.7672 88.512 38.4476 -117.718 -76.3092 -125.88 179.417 8.92453 94.0586 -57.589 -49.2213 -3.60976 22.7907 -35.3633 -42.84 28.7808 4.21048e-006 4.72346e-006 -178.256 37.5622 63.2261 -32.0642 4.93731 0.0846386 27.2562 8.63085 10.7894 28.7808 1.33314e-005 1.73752e-005 1.78698 7.75112 -90.5512 11.3835 3.68078 -1.04314 -0.282739 3.63044 -1.20533 -22.8588 3.84237 0.0989728 -2.84621 3.84237 0.0989534 83.9437 -18.846 -125.637 26.5824 11.6362 -29.198 98.2301 43.1075 -100.683 56.5396 9.10406 11.1068 -154.221 -72.5192 10.9926 0.286061 -30.8692 -46.6126 -177.474 -64.3187 179.991 -67.8719 -5.02797 3.28285 -16.5741 31.3437 55.6559 1.96552 31.4345 -3.12265 
83.5574 84.3205 39.936 -119.385 -77.8256 -128.671 179.338 9.24205 95.315 -61.6135 -42.1647 -2.54014 26.4014 -43.315 -48.7623 28.7808 4.21048e-006 4.72346e-006 -171.736 43.3642 60.2655 -48.1036 7.12009 -0.014223 29.507 11.4195 13.2821 28.7808 1.33314e-005 1.73752e-005 1.42026 7.74969 -90.3306 11.3976 3.16499 -0.994392 -0.269975 3.11857 -1.13018 -22.8374 3.31437 0.00517863 -2.8247 3.31436 0.00516846 85.7976 -18.7767 -121.777 26.8626 10.678 -44.7363 170.899 63.7757 -176.552 75.2862 21.6934 22.5389 -150.065 -73.9247 16.0885 3.0176 -31.1892 -40.0268 -177.373 -67.3401 179.99 -47.557 -1.02706 -2.08704 -11.3178 35.2015 51.4314 -3.47354 32.9855 -0.65638 
79.9048 82.3289 41.7186 -109.42 -80.586 -118.5 179.003 10.3973 99.6617 -61.3987 -36.4145 -1.87232 23.48 -46.3907 -54.4103 28.7808 4.21048e-006 4.72346e-006 -170.313 46.152 62.9585 -55.6279 13.971 0.299752 49.8247 12.1028 9.37411 28.7808 1.33314e-005 1.73752e-005 1.21277 7.37503 -90.2348 12.1332 2.80837 -0.488574 0.465173 2.78359 -0.612236 -22.0944 2.82869 0.381835 -2.08177 2.82868 0.38183 85.8745 -22.6563 -118.887 27.0819 10.9845 -39.9939 170.826 64.0784 -176.486 76.4112 8.55078 5.69274 -134.367 -75.212 33.3853 5.13022 -30.2634 -31.3147 -176.996 -79.9928 179.982 -39.224 2.55567 -12.3187 -4.07545 38.5043 44.2695 -6.50996 33.8964 0.591596 
74.9029 82.0907 44.2172 -102.933 -81.5643 -109.229 178.883 8.99807 107.717 -58.3889 -33.2634 -1.57724 12.7722 -43.3462 -59.7217 28.7808 4.21048e-006 4.72346e-006 -174.395 43.8475 72.457 -56.7642 18.4307 0.584674 68.5153 7.42078 3.70746 28.7808 1.33314e-005 1.73752e-005 1.22868 7.08758 -90.4912 12.6978 2.74577 -0.548747 1.02964 2.72003 -0.669407 -21.5289 2.7823 0.304347 -1.5163 2.78227 0.304307 86.6547 -24.4742 -116.175 25.343 12.8428 -33.3644 169.423 68.8447 -175.168 69.1572 1.33267 -3.17727 -113.929 -76.4279 56.3123 8.26469 -29.6459 -22.6425 1.86449 -82.7481 -1.54532 -29.1829 3.81168 -20.3572 -0.249406 38.9274 41.1926 -6.46668 33.3984 -1.41 
69.3967 84.1568 47.0795 -110.048 -83.4393 -117.384 -179.993 7.66118 109.837 -52.2112 -39.0069 -2.3247 13.2045 -31.4599 -45.4802 28.7808 4.21048e-006 4.72346e-006 -176.325 40.256 76.2669 -56.1867 22.4292 0.881826 71.3833 2.86965 1.23145 28.7808 1.33314e-005 1.73752e-005 1.07658 7.04797 -89.9133 12.7717 2.58545 0.350967 1.10333 2.59684 0.236422 -21.4495 2.37096 1.11457 -1.43691 2.37097 1.11458 88.8865 -25.1492 -111.009 25.4338 13.2801 -27.0608 115.466 86.9456 -121.574 57.8278 -9.38523 -21.589 -90.0649 -74.0827 82.8742 11.3189 -29.6492 -17.2416 1.5519 -77.7042 -1.95766 -22.0471 2.645 -20.0411 3.4053 37.7659 36.2751 -8.85969 31.7529 -0.500928 
63.8986 87.9353 49.4199 -115.332 -83.2468 -124.862 -179.336 6.6129 105.172 -49.5096 -58.6146 -5.90854 18.0987 -17.0771 -24.0116 28.7808 4.21048e-006 4.72346e-006 -178.103 34.5439 78.486 -50.246 22.5406 0.986402 67.7336 1.65083 0.789955 28.7808 1.33314e-005 1.73752e-005 1.26442 6.94168 -89.4728 12.9856 3.01104 0.728159 1.31798 3.04002 0.595958 -21.2384 2.65368 1.59208 -1.22579 2.65369 1.59209 91.7922 -17.4684 -108.336 24.8749 14.3589 -14.1535 6.38632 73.6012 -12.8367 46.8104 -7.22517 -21.5347 -83.9614 -70.0193 89.6858 15.3725 -29.031 -9.52718 1.49626 -66.2604 -2.24599 -8.23878 0.246024 -11.8747 -7.50211 30.3801 43.8688 -1.08387 26.9844 -6.34253 
59.3553 92.0039 51.13 -129.869 -81.0168 -137.558 -179.39 2.57114 99.3622 -47.0735 -56.6938 -5.50397 29.0542 -14.5588 -16.8355 28.7808 4.21048e-006 4.72346e-006 179.898 25.0264 83.6736 -40.1968 22.7544 1.17192 58.6647 2.24739 1.59296 28.7808 1.33314e-005 1.73752e-005 1.62408 7.12568 -89.6938 12.6272 3.51364 0.244674 0.961071 3.52188 0.0892583 -21.6084 3.2713 1.29284 -1.59578 3.27129 1.29282 94.6034 -10.9796 -104.108 22.7046 16.4155 1.82844 13.3905 41.0186 -27.1768 30.1306 -1.17142 -9.42252 -82.4708 -66.3063 91.2496 15.3452 -28.0078 -6.23548 1.58942 -51.4669 -2.47908 6.65637 -0.803087 -13.3473 -14.5529 22.6344 46.7303 2.17975 21.5752 -12.1544 
55.1585 96.5087 52.2443 -134.492 -80.1642 -138.165 179.868 3.11572 94.5085 -44.4031 -56.7842 -5.54193 35.701 -9.57132 -10.1292 28.7808 4.21048e-006 4.72346e-006 179.95 14.1481 88.9916 -22.5775 24.8503 1.56394 40.1736 4.58378 4.82181 28.7808 1.33314e-005 1.73752e-005 1.56377 7.02911 -90.0233 12.8198 3.25006 -0.0442142 1.15287 3.24492 -0.187373 -21.413 3.11279 0.935575 -1.4004 3.11278 0.935559 95.2043 -11.7337 -102.155 17.8341 18.4878 4.98577 7.0667 27.5117 -24.1505 23.712 0.62099 -2.08 -73.4018 -59.2604 103.188 14.7579 -27.5555 -5.45009 1.62093 -47.5542 -2.53413 7.47953 -0.898553 -13.7321 -16.4938 19.1731 35.6412 -2.48282 19.4691 -7.0638 
51.1816 99.7439 53.2573 -131.698 -80.9422 -132.946 179.597 4.73367 89.401 -39.0284 -49.4075 -4.94461 39.7531 -6.19536 -6.30388 28.7808 4.21048e-006 4.72346e-006 -178.141 6.33111 90.3632 -4.93073 28.5984 1.90845 12.4354 8.41216 13.9727 28.7808 1.33314e-005 1.73752e-005 1.3302 6.79806 -88.8249 13.3329 2.96808 -0.564482 1.6651 2.94035 -0.694671 -20.897 3.00247 0.354481 -0.884364 3.00245 0.354466 96.2575 -11.5467 -99.3056 13.5332 18.649 -1.32792 -2.25896 22.7024 -5.23439 24.1083 -0.805877 -8.6394 -70.4347 -52.5302 107.989 14.2487 -27.0029 -4.20844 1.68493 -40.9009 -2.62735 9.30336 -0.982243 -13.0854 -20.7593 15.4235 30.4152 -0.335905 16.6614 -11.5037 
47.0183 101.767 53.868 -130.115 -81.3967 -127.995 179.425 9.88716 87.1487 -42.0141 -59.6321 -8.71082 26.4715 -16.0238 -18.8224 28.7808 4.21048e-006 4.72346e-006 -176.449 7.3841 91.8273 -5.15743 31.7901 2.18982 0.276756 11.5186 23.42 28.7808 1.33314e-005 1.73752e-005 1.09047 6.86017 -87.7236 13.2837 2.87896 -1.00192 1.61545 2.83211 -1.12777 -20.9452 3.04682 -0.0895105 -0.932569 3.04681 -0.0895311 97.801 -16.2578 -93.538 5.836 21.4476 -3.0868 -2.5284 17.1841 -5.11729 22.5611 -0.619321 -7.97326 -69.3575 -46.8974 110.389 16.024 -27.625 -4.22549 1.77915 -32.2844 -2.74997 11.9344 -1.00522 -11.6447 -22.1415 13.3659 19.5196 -1.07926 14.5475 -5.71474 
42.8721 103.926 53.9152 -130.977 -81.2947 -124.386 179.226 11.4841 87.4113 -37.859 -65.3599 -9.74744 19.9875 -9.92889 -13.6735 28.7808 4.21048e-006 4.72346e-006 -175.531 8.02913 93.891 -5.70126 38.0744 2.83722 1.0227 8.37046 17.7355 28.7808 1.33314e-005 1.73752e-005 1.05792 6.94794 -88.3204 13.1046 2.6885 -1.52715 1.43542 2.61746 -1.64385 -21.1203 3.01745 -0.649262 -1.10759 3.01744 -0.64928 99.0397 -16.3823 -90.3267 1.61927 22.9071 -3.2947 -2.44377 18.9631 -5.15312 21.2905 -0.300062 -6.49838 -68.2126 -39.7466 113.53 16.8216 -27.9029 -4.22186 1.9014 -22.5203 -2.89626 11.704 -1.00716 -11.7927 -21.5087 12.5239 11.0128 -2.9966 13.2412 -0.132824 
38.7775 104.5 53.7865 -124.608 -81.0313 -115.451 179.375 16.0862 89.8775 -147.21 -83.9713 -116.318 3.4398 -13.6722 -25.3227 28.7808 4.21048e-006 4.72346e-006 -176.63 9.74987 92.272 -5.2786 33.3922 2.33504 -2.33198 7.29261 17.0762 28.7808 1.33314e-005 1.73752e-005 1.02561 7.03532 -88.6001 12.9272 2.67962 -1.84098 1.25747 2.59486 -1.95711 -21.2962 3.10767 -0.950386 -1.28352 3.10765 -0.950409 100.184 -13.3375 -87.6941 -0.692874 23.6742 -3.19213 -2.64023 14.7709 -5.07343 20.1423 -0.0332529 -5.12198 -68.3428 -30.6329 115.361 13.9798 -27.0921 -4.86576 2.06604 -11.2621 -3.08177 14.2731 -0.946112 -10.1194 -18.0701 11.4322 6.45994 -7.26386 11.591 2.46803 
34.5184 104.672 53.9325 -125.787 -81.4075 -114.101 179.958 13.3645 91.8547 -174.395 -79.8674 -150.604 8.58147 -9.69195 -16.4926 28.7808 4.21048e-006 4.72346e-006 -178.299 10.8613 88.9645 -5.42657 35.1503 2.51233 -1.46454 5.12661 12.6434 28.7808 1.33314e-005 1.73752e-005 0.978223 7.16857 -88.8075 12.6604 2.58675 -2.26596 0.989945 2.48459 -2.37753 -21.5597 3.15034 -1.38324 -1.54707 3.15035 -1.38326 101.175 -9.06224 -85.2642 -1.28612 23.8298 -2.9454 -2.54557 16.8189 -5.11032 17.9292 0.139302 -4.03878 -70.7068 -23.9262 112.237 14.0229 -26.0206 -1.12805 2.29344 1.43993 -3.32805 13.795 -0.381509 -6.41274 -16.7173 10.2776 4.59599 -8.88362 10.2833 2.64401 
30.1426 103.382 54.3863 -134.187 -83.0215 -120.142 -179.23 15.2111 95.0665 -178.569 -79.6363 -151.307 13.1619 -9.42381 -14.8739 28.7808 4.21048e-006 4.72346e-006 179.949 10.8738 85.4636 -5.19456 32.3649 2.22951 -1.86862 4.64627 11.87 28.7808 1.33314e-005 1.73752e-005 0.860901 7.18779 -88.8883 12.6195 2.3238 -2.60364 0.947854 2.20655 -2.70395 -21.5925 3.00185 -1.78885 -1.57982 3.00184 -1.78887 101.93 -5.12164 -83.0903 -1.21159 23.7597 -2.69177 -2.60958 15.4397 -5.08491 11.8522 0.371324 -1.55062 -73.2243 -18.3398 108.044 13.7044 -24.9588 2.1656 2.34844 4.17075 -3.38674 17.2953 -0.733275 -8.11572 -17.6127 9.16697 2.41434 -8.45593 9.17199 2.67782 
